<mxfile host="app.diagrams.net" modified="2023-05-15T18:30:01.934Z" agent="Mozilla/5.0 (X11; Ubuntu; Linux x86_64; rv:109.0) Gecko/20100101 Firefox/113.0" etag="xG53wioirhAtemcgyk7g" version="21.3.1" type="device">
  <diagram name="Page-1" id="C9ZfD6jyWy-uuSbdnv2c">
    <mxGraphModel dx="910" dy="586" grid="0" gridSize="10" guides="1" tooltips="1" connect="1" arrows="1" fold="1" page="1" pageScale="1" pageWidth="1600" pageHeight="900" background="#27262b" math="0" shadow="0">
      <root>
        <mxCell id="0" />
        <mxCell id="1" parent="0" />
        <mxCell id="xOqBvGDHRuG3f08-ZV7n-2" value="&lt;b&gt;Person&lt;/b&gt;" style="rounded=1;whiteSpace=wrap;html=1;verticalAlign=middle;fillColor=#647687;strokeColor=#314354;fontColor=#ffffff;" vertex="1" parent="1">
          <mxGeometry x="390" y="97" width="126" height="21" as="geometry" />
        </mxCell>
        <mxCell id="xOqBvGDHRuG3f08-ZV7n-5" value="&lt;b&gt;&lt;font color=&quot;#ffffff&quot;&gt;Person Map&lt;br&gt;&lt;/font&gt;&lt;/b&gt;" style="rounded=0;whiteSpace=wrap;html=1;fillColor=#76608a;strokeColor=#432D57;fontColor=#ffffff;" vertex="1" parent="1">
          <mxGeometry x="171" y="68" width="120" height="38" as="geometry" />
        </mxCell>
        <mxCell id="xOqBvGDHRuG3f08-ZV7n-11" style="edgeStyle=orthogonalEdgeStyle;rounded=0;orthogonalLoop=1;jettySize=auto;html=1;entryX=0;entryY=0.5;entryDx=0;entryDy=0;strokeColor=#FFFFFF;strokeWidth=3;" edge="1" parent="1" source="xOqBvGDHRuG3f08-ZV7n-6" target="xOqBvGDHRuG3f08-ZV7n-2">
          <mxGeometry relative="1" as="geometry" />
        </mxCell>
        <mxCell id="xOqBvGDHRuG3f08-ZV7n-6" value="&lt;b&gt;&lt;font style=&quot;font-size: 10px;&quot;&gt;&quot;abcdefgh-1234&quot;&lt;/font&gt;&lt;/b&gt;" style="rounded=0;whiteSpace=wrap;html=1;fillColor=#534361;strokeColor=#432D57;fontColor=#ffffff;" vertex="1" parent="1">
          <mxGeometry x="171" y="105" width="120" height="26" as="geometry" />
        </mxCell>
        <mxCell id="xOqBvGDHRuG3f08-ZV7n-12" style="edgeStyle=orthogonalEdgeStyle;rounded=0;orthogonalLoop=1;jettySize=auto;html=1;entryX=0;entryY=0.5;entryDx=0;entryDy=0;strokeColor=#FFFFFF;strokeWidth=3;" edge="1" parent="1" source="xOqBvGDHRuG3f08-ZV7n-7" target="xOqBvGDHRuG3f08-ZV7n-8">
          <mxGeometry relative="1" as="geometry" />
        </mxCell>
        <mxCell id="xOqBvGDHRuG3f08-ZV7n-7" value="&lt;b&gt;&lt;font style=&quot;font-size: 10px;&quot;&gt;&quot;abcdefgh-4567&quot;&lt;/font&gt;&lt;/b&gt;" style="rounded=0;whiteSpace=wrap;html=1;fillColor=#534361;strokeColor=#432D57;fontColor=#ffffff;" vertex="1" parent="1">
          <mxGeometry x="171" y="131" width="120" height="26" as="geometry" />
        </mxCell>
        <mxCell id="xOqBvGDHRuG3f08-ZV7n-8" value="&lt;b&gt;Person&lt;/b&gt;" style="rounded=1;whiteSpace=wrap;html=1;verticalAlign=middle;fillColor=#647687;strokeColor=#314354;fontColor=#ffffff;" vertex="1" parent="1">
          <mxGeometry x="390" y="133.5" width="126" height="21" as="geometry" />
        </mxCell>
        <mxCell id="xOqBvGDHRuG3f08-ZV7n-9" value="&lt;b&gt;Person&lt;/b&gt;" style="rounded=1;whiteSpace=wrap;html=1;verticalAlign=middle;fillColor=#647687;strokeColor=#314354;fontColor=#ffffff;" vertex="1" parent="1">
          <mxGeometry x="390" y="170" width="126" height="21" as="geometry" />
        </mxCell>
        <mxCell id="xOqBvGDHRuG3f08-ZV7n-13" style="edgeStyle=orthogonalEdgeStyle;rounded=0;orthogonalLoop=1;jettySize=auto;html=1;entryX=0;entryY=0.5;entryDx=0;entryDy=0;strokeColor=#FFFFFF;strokeWidth=3;" edge="1" parent="1" source="xOqBvGDHRuG3f08-ZV7n-10" target="xOqBvGDHRuG3f08-ZV7n-9">
          <mxGeometry relative="1" as="geometry" />
        </mxCell>
        <mxCell id="xOqBvGDHRuG3f08-ZV7n-10" value="&lt;b&gt;&lt;font style=&quot;font-size: 10px;&quot;&gt;&quot;abcdefgh-6789&quot;&lt;/font&gt;&lt;/b&gt;" style="rounded=0;whiteSpace=wrap;html=1;fillColor=#534361;strokeColor=#432D57;fontColor=#ffffff;" vertex="1" parent="1">
          <mxGeometry x="171" y="157" width="120" height="26" as="geometry" />
        </mxCell>
        <mxCell id="xOqBvGDHRuG3f08-ZV7n-15" value="&lt;b&gt;Person&lt;/b&gt;" style="rounded=1;whiteSpace=wrap;html=1;verticalAlign=middle;fillColor=#647687;strokeColor=#314354;fontColor=#ffffff;" vertex="1" parent="1">
          <mxGeometry x="308" y="286" width="126" height="21" as="geometry" />
        </mxCell>
        <mxCell id="xOqBvGDHRuG3f08-ZV7n-16" value="&lt;b&gt;&lt;font color=&quot;#ffffff&quot;&gt;Person Map&lt;br&gt;&lt;/font&gt;&lt;/b&gt;" style="rounded=0;whiteSpace=wrap;html=1;fillColor=#76608a;strokeColor=#432D57;fontColor=#ffffff;" vertex="1" parent="1">
          <mxGeometry x="89" y="257" width="120" height="38" as="geometry" />
        </mxCell>
        <mxCell id="xOqBvGDHRuG3f08-ZV7n-17" style="edgeStyle=orthogonalEdgeStyle;rounded=0;orthogonalLoop=1;jettySize=auto;html=1;entryX=0;entryY=0.5;entryDx=0;entryDy=0;strokeColor=#FFFFFF;strokeWidth=3;" edge="1" parent="1" source="xOqBvGDHRuG3f08-ZV7n-18" target="xOqBvGDHRuG3f08-ZV7n-15">
          <mxGeometry relative="1" as="geometry" />
        </mxCell>
        <mxCell id="xOqBvGDHRuG3f08-ZV7n-18" value="&lt;b&gt;&lt;font style=&quot;font-size: 10px;&quot;&gt;&quot;abcdefgh-1234&quot;&lt;/font&gt;&lt;/b&gt;" style="rounded=0;whiteSpace=wrap;html=1;fillColor=#534361;strokeColor=#432D57;fontColor=#ffffff;" vertex="1" parent="1">
          <mxGeometry x="89" y="294" width="120" height="26" as="geometry" />
        </mxCell>
        <mxCell id="xOqBvGDHRuG3f08-ZV7n-19" style="edgeStyle=orthogonalEdgeStyle;rounded=0;orthogonalLoop=1;jettySize=auto;html=1;entryX=0;entryY=0.5;entryDx=0;entryDy=0;strokeColor=#FFFFFF;strokeWidth=3;" edge="1" parent="1" source="xOqBvGDHRuG3f08-ZV7n-20" target="xOqBvGDHRuG3f08-ZV7n-21">
          <mxGeometry relative="1" as="geometry" />
        </mxCell>
        <mxCell id="xOqBvGDHRuG3f08-ZV7n-20" value="&lt;b&gt;&lt;font style=&quot;font-size: 10px;&quot;&gt;&quot;abcdefgh-4567&quot;&lt;/font&gt;&lt;/b&gt;" style="rounded=0;whiteSpace=wrap;html=1;fillColor=#534361;strokeColor=#432D57;fontColor=#ffffff;" vertex="1" parent="1">
          <mxGeometry x="89" y="320" width="120" height="26" as="geometry" />
        </mxCell>
        <mxCell id="xOqBvGDHRuG3f08-ZV7n-21" value="&lt;b&gt;Person&lt;/b&gt;" style="rounded=1;whiteSpace=wrap;html=1;verticalAlign=middle;fillColor=#647687;strokeColor=#314354;fontColor=#ffffff;" vertex="1" parent="1">
          <mxGeometry x="308" y="322.5" width="126" height="21" as="geometry" />
        </mxCell>
        <mxCell id="xOqBvGDHRuG3f08-ZV7n-22" value="&lt;b&gt;Person&lt;/b&gt;" style="rounded=1;whiteSpace=wrap;html=1;verticalAlign=middle;fillColor=#647687;strokeColor=#314354;fontColor=#ffffff;" vertex="1" parent="1">
          <mxGeometry x="308" y="359" width="126" height="21" as="geometry" />
        </mxCell>
        <mxCell id="xOqBvGDHRuG3f08-ZV7n-23" style="edgeStyle=orthogonalEdgeStyle;rounded=0;orthogonalLoop=1;jettySize=auto;html=1;entryX=0;entryY=0.5;entryDx=0;entryDy=0;strokeColor=#FFFFFF;strokeWidth=3;" edge="1" parent="1" source="xOqBvGDHRuG3f08-ZV7n-24" target="xOqBvGDHRuG3f08-ZV7n-22">
          <mxGeometry relative="1" as="geometry" />
        </mxCell>
        <mxCell id="xOqBvGDHRuG3f08-ZV7n-24" value="&lt;b&gt;&lt;font style=&quot;font-size: 10px;&quot;&gt;&quot;abcdefgh-6789&quot;&lt;/font&gt;&lt;/b&gt;" style="rounded=0;whiteSpace=wrap;html=1;fillColor=#534361;strokeColor=#432D57;fontColor=#ffffff;" vertex="1" parent="1">
          <mxGeometry x="89" y="346" width="120" height="26" as="geometry" />
        </mxCell>
        <mxCell id="xOqBvGDHRuG3f08-ZV7n-25" value="&lt;b&gt;Address&lt;/b&gt;" style="rounded=1;whiteSpace=wrap;html=1;verticalAlign=middle;fillColor=#647687;strokeColor=#314354;fontColor=#ffffff;" vertex="1" parent="1">
          <mxGeometry x="700" y="286" width="126" height="21" as="geometry" />
        </mxCell>
        <mxCell id="xOqBvGDHRuG3f08-ZV7n-26" value="&lt;b&gt;&lt;font color=&quot;#ffffff&quot;&gt;Address Map&lt;br&gt;&lt;/font&gt;&lt;/b&gt;" style="rounded=0;whiteSpace=wrap;html=1;fillColor=#76608a;strokeColor=#432D57;fontColor=#ffffff;" vertex="1" parent="1">
          <mxGeometry x="481" y="257" width="120" height="38" as="geometry" />
        </mxCell>
        <mxCell id="xOqBvGDHRuG3f08-ZV7n-27" style="edgeStyle=orthogonalEdgeStyle;rounded=0;orthogonalLoop=1;jettySize=auto;html=1;entryX=0;entryY=0.5;entryDx=0;entryDy=0;strokeColor=#FFFFFF;strokeWidth=3;" edge="1" parent="1" source="xOqBvGDHRuG3f08-ZV7n-28" target="xOqBvGDHRuG3f08-ZV7n-25">
          <mxGeometry relative="1" as="geometry" />
        </mxCell>
        <mxCell id="xOqBvGDHRuG3f08-ZV7n-28" value="&lt;b&gt;&lt;font style=&quot;font-size: 10px;&quot;&gt;&quot;aaaaddd-1234&quot;&lt;/font&gt;&lt;/b&gt;" style="rounded=0;whiteSpace=wrap;html=1;fillColor=#534361;strokeColor=#432D57;fontColor=#ffffff;" vertex="1" parent="1">
          <mxGeometry x="481" y="294" width="120" height="26" as="geometry" />
        </mxCell>
        <mxCell id="xOqBvGDHRuG3f08-ZV7n-29" style="edgeStyle=orthogonalEdgeStyle;rounded=0;orthogonalLoop=1;jettySize=auto;html=1;entryX=0;entryY=0.5;entryDx=0;entryDy=0;strokeColor=#FFFFFF;strokeWidth=3;" edge="1" parent="1" source="xOqBvGDHRuG3f08-ZV7n-30" target="xOqBvGDHRuG3f08-ZV7n-31">
          <mxGeometry relative="1" as="geometry" />
        </mxCell>
        <mxCell id="xOqBvGDHRuG3f08-ZV7n-30" value="&lt;b&gt;&lt;font style=&quot;font-size: 10px;&quot;&gt;&quot;aaaadddd-4567&quot;&lt;/font&gt;&lt;/b&gt;" style="rounded=0;whiteSpace=wrap;html=1;fillColor=#534361;strokeColor=#432D57;fontColor=#ffffff;" vertex="1" parent="1">
          <mxGeometry x="481" y="320" width="120" height="26" as="geometry" />
        </mxCell>
        <mxCell id="xOqBvGDHRuG3f08-ZV7n-31" value="&lt;b&gt;Address&lt;/b&gt;" style="rounded=1;whiteSpace=wrap;html=1;verticalAlign=middle;fillColor=#647687;strokeColor=#314354;fontColor=#ffffff;" vertex="1" parent="1">
          <mxGeometry x="700" y="322.5" width="126" height="21" as="geometry" />
        </mxCell>
        <mxCell id="xOqBvGDHRuG3f08-ZV7n-32" value="&lt;b&gt;Address&lt;/b&gt;" style="rounded=1;whiteSpace=wrap;html=1;verticalAlign=middle;fillColor=#647687;strokeColor=#314354;fontColor=#ffffff;" vertex="1" parent="1">
          <mxGeometry x="700" y="359" width="126" height="21" as="geometry" />
        </mxCell>
        <mxCell id="xOqBvGDHRuG3f08-ZV7n-33" style="edgeStyle=orthogonalEdgeStyle;rounded=0;orthogonalLoop=1;jettySize=auto;html=1;entryX=0;entryY=0.5;entryDx=0;entryDy=0;strokeColor=#FFFFFF;strokeWidth=3;" edge="1" parent="1" source="xOqBvGDHRuG3f08-ZV7n-34" target="xOqBvGDHRuG3f08-ZV7n-32">
          <mxGeometry relative="1" as="geometry" />
        </mxCell>
        <mxCell id="xOqBvGDHRuG3f08-ZV7n-34" value="&lt;b&gt;&lt;font style=&quot;font-size: 10px;&quot;&gt;&quot;aaaadddd-6789&quot;&lt;/font&gt;&lt;/b&gt;" style="rounded=0;whiteSpace=wrap;html=1;fillColor=#534361;strokeColor=#432D57;fontColor=#ffffff;" vertex="1" parent="1">
          <mxGeometry x="481" y="346" width="120" height="26" as="geometry" />
        </mxCell>
      </root>
    </mxGraphModel>
  </diagram>
</mxfile>
